<?xml version="1.0" encoding="utf-8"?>
<!-- Generator: Adobe Illustrator 19.2.0, SVG Export Plug-In . SVG Version: 6.00 Build 0)  -->
<svg version="1.1" id="Layer_1" xmlns="http://www.w3.org/2000/svg" xmlns:xlink="http://www.w3.org/1999/xlink" x="0px" y="0px"
	 viewBox="0 0 30 27.1" style="enable-background:new 0 0 30 27.1;" xml:space="preserve">
<style type="text/css">
	.st0{fill:none;stroke:#FFFFFF;stroke-linecap:round;stroke-linejoin:round;stroke-miterlimit:10;}
</style>
<polyline class="st0" points="21,4.1 22.9,3 29.1,13.4 9.8,25.9 "/>
<path class="st0" d="M3.1,20.8l0.3,0.3c0.3-0.4,0.8-0.6,1.3-0.6c1,0,1.8,0.8,1.8,1.8c0,0.5-0.2,1-0.5,1.3l0.3,0.2
	c0.3-0.3,0.7-0.4,1.2-0.4c1,0,1.8,0.8,1.8,1.8c0,0.5-0.2,0.9-0.5,1.2l0.4-0.2L26,9.3l-8.5-8.5L0.8,17.5l-0.1,0.6
	c0.3-0.3,0.7-0.4,1.2-0.4c1,0,1.8,0.8,1.8,1.8C3.7,20,3.5,20.4,3.1,20.8"/>
<line class="st0" x1="5.2" y1="13.4" x2="13.6" y2="21.7"/>
<line class="st0" x1="8.8" y1="13.8" x2="15.9" y2="6.6"/>
<line class="st0" x1="10.9" y1="15.9" x2="18.1" y2="8.7"/>
<line class="st0" x1="13" y1="18" x2="16.5" y2="14.5"/>
</svg>
