<?xml version="1.0" encoding="utf-8"?>
<!-- Generator: Adobe Illustrator 19.2.0, SVG Export Plug-In . SVG Version: 6.00 Build 0)  -->
<svg version="1.1" id="Layer_1" xmlns="http://www.w3.org/2000/svg" xmlns:xlink="http://www.w3.org/1999/xlink" x="0px" y="0px"
	 viewBox="0 0 25 25.2" style="enable-background:new 0 0 25 25.2;" xml:space="preserve">
<style type="text/css">
	.st0{fill:none;stroke:#00ACEE;stroke-miterlimit:10;}
	.st1{fill:#00ACEE;}
</style>
<path class="st0" d="M12.5,24C18.8,24,24,18.9,24,12.5S18.8,1.1,12.5,1.1C6.1,1.1,1,6.2,1,12.6S6.1,24,12.5,24"/>
<g>
	<g>
		<g>
			<path class="st1" d="M12.5,6.4c0.2,0,0.3,0,0.6,0.2c0.1,0.1,0.2,0.1,0.3,0.1c0.8,0.2,1.1,0.5,1.2,1.2c0,0,0,0.1,0,0.1
				c0.1,0.3,0.1,0.6,0.1,0.9v0.3c0,0.2,0,0.3,0.1,0.4c0,0.1,0.1,0.2,0.1,0.2c0,0.1,0,0.1-0.1,0.2c0,0.1-0.1,0.2-0.2,0.3
				c-0.3,0.1-0.5,0.4-0.5,0.7c-0.1,0.4-0.2,0.7-0.4,1c-0.2,0.3-0.3,0.7-0.1,1c0.1,0.2,0.3,0.4,0.6,0.5c0.1,0,0.1,0.1,0.2,0.1
				c0.2,0.1,0.5,0.2,0.9,0.4c0.4,0.1,0.8,0.3,1.1,0.4c0,0,1.1,0.6,1.2,1.8c-0.4,0.7-2.1,0.8-4.1,0.9c-0.3,0-0.7,0-1.1,0.1l-0.7,0
				c-2-0.1-4-0.2-4.4-0.9c0.1-1.1,0.8-1.7,1.2-1.9c0.4-0.1,1.6-0.6,2.1-0.9c0,0,0,0,0.1,0c0.1,0,0.3-0.1,0.6-0.3
				c0.2-0.2,0.3-0.4,0.3-0.7v-0.1c0-0.2-0.1-0.4-0.2-0.6c-0.2-0.3-0.4-0.6-0.4-0.9c-0.1-0.3-0.3-0.6-0.5-0.7c-0.1,0-0.1-0.1-0.2-0.2
				c0-0.1,0-0.1-0.1-0.2c0,0,0,0,0,0c0.2-0.2,0.4-0.6,0.3-1c-0.1-0.3-0.1-0.6-0.1-0.8V7.8c0-0.1,0-0.3,0.2-0.4
				c0.1-0.1,0.2-0.2,0.3-0.3c0,0,0,0,0,0c0.3,0,0.5-0.1,0.7-0.3c0.1-0.1,0.1-0.1,0.1-0.1C11.9,6.5,12.1,6.4,12.5,6.4 M12.5,5.4
				c-0.6,0-1,0.2-1.2,0.3S11,5.9,10.9,6c-0.3,0-0.7,0.2-0.9,0.6C9.5,7,9.4,7.5,9.4,7.8V8c0,0.2,0,0.6,0.1,1C9.3,9.1,9.2,9.4,9.2,9.7
				c0,0.2,0,0.3,0.1,0.5c0.1,0.4,0.3,0.7,0.7,0.9c0.1,0.5,0.3,0.9,0.6,1.3v0.1c-0.1,0.1-0.2,0.1-0.4,0.2c-0.3,0.2-1.4,0.6-2,0.8
				c-0.7,0.3-1.8,1.4-1.8,3c0.5,1.6,3,1.6,6.1,1.8c3.2-0.2,5.7-0.1,6.2-1.8c0-0.1,0-0.2,0-0.2c-0.1-1.5-1.2-2.4-1.8-2.7
				s-1.6-0.6-2-0.8c-0.2-0.1-0.3-0.2-0.4-0.2c0.3-0.4,0.5-0.9,0.6-1.4c0.4-0.2,0.5-0.5,0.7-0.9c0-0.2,0.1-0.3,0.1-0.5
				s-0.1-0.5-0.2-0.7c0-0.1,0-0.2,0-0.3c0-0.3,0-0.7-0.1-1.1c-0.2-1.3-1-1.8-2-2C13.1,5.4,12.8,5.4,12.5,5.4L12.5,5.4z"/>
		</g>
	</g>
</g>
</svg>
